<svg width="134" height="27" viewBox="0 0 134 27" fill="none" xmlns="http://www.w3.org/2000/svg">
<g clip-path="url(#clip0_17_625)">
<path d="M20.0894 4.99505C19.353 5.66932 18.688 6.37819 18.0988 7.09019C17.1336 5.77833 15.9369 4.44759 14.5815 3.2063C11.1023 6.39146 8.63303 10.5416 8.63303 13.0444C8.63303 17.4901 12.184 21.0938 16.5643 21.0938C20.9445 21.0938 24.4955 17.4901 24.4955 13.0444C24.4955 11.1834 22.6551 7.34488 20.0894 4.99505ZM19.4001 16.8962C18.6331 17.4258 17.6874 17.7399 16.6655 17.7399C14.1109 17.7399 12.0321 16.072 12.0321 13.3641C12.0321 12.0152 12.8929 10.8267 14.6094 8.79614C14.8548 9.07494 18.1087 13.1751 18.1087 13.1751L20.1847 10.8385C20.3313 11.0778 20.4648 11.3119 20.5837 11.5362C21.5521 13.3596 21.1435 15.6926 19.4001 16.8962Z" fill="#EA9828"/>
</g>
<path d="M32.4696 19.9785H36.8242V13.595H43.4568V10.2608H36.8242V6.35718H44.1213V2.85693H32.4696V19.9785Z" fill="white"/>
<path d="M50.6586 20.2514C51.6394 20.2514 52.4581 20.0299 53.1147 19.5869C53.7712 19.1439 54.2616 18.5151 54.586 17.7003H54.669V19.9785H58.8812V7.05723H54.669V14.3899C54.669 14.8646 54.5781 15.2877 54.3961 15.6595C54.2221 16.0234 53.9729 16.3082 53.6486 16.5138C53.3322 16.7195 52.9486 16.8223 52.4977 16.8223C51.8095 16.8223 51.2914 16.6167 50.9433 16.2053C50.5953 15.7861 50.4213 15.2086 50.4213 14.473V7.05723H46.2091V15.3748C46.2091 16.3952 46.3831 17.2692 46.7312 17.997C47.0792 18.7247 47.5855 19.2824 48.2499 19.67C48.9144 20.0576 49.7173 20.2514 50.6586 20.2514Z" fill="white"/>
<path d="M61.4673 19.9785H65.6795V2.85693H61.4673V19.9785Z" fill="white"/>
<path d="M68.3368 19.9785H72.549V2.85693H68.3368V19.9785Z" fill="white"/>
<path d="M75.7284 19.9785H77.3183V5.57407H78.0777L75.9776 3.58071L87.4512 19.9785H89.053V2.85693H87.4512V17.2613H86.7037L88.792 19.2666L77.3183 2.85693H75.7284V19.9785Z" fill="white"/>
<path d="M92.6003 19.9785H94.1665V7.63862H92.6003V19.9785ZM93.3834 5.40796C93.6761 5.40796 93.9213 5.30908 94.119 5.11133C94.3247 4.90566 94.4275 4.65649 94.4275 4.36382C94.4275 4.07905 94.3247 3.83779 94.119 3.64004C93.9213 3.43438 93.6761 3.33154 93.3834 3.33154C93.0986 3.33154 92.8534 3.43438 92.6477 3.64004C92.45 3.83779 92.3511 4.07905 92.3511 4.36382C92.3511 4.65649 92.45 4.90566 92.6477 5.11133C92.8534 5.30908 93.0986 5.40796 93.3834 5.40796Z" fill="white"/>
<path d="M97.4764 19.9785H99.0426V12.6695C99.0426 11.8943 99.189 11.2219 99.4816 10.6524C99.7822 10.075 100.201 9.62407 100.739 9.29976C101.277 8.97544 101.906 8.81328 102.626 8.81328C103.678 8.81328 104.481 9.11387 105.035 9.71504C105.588 10.3162 105.865 11.1903 105.865 12.3373V19.9785H107.431V12.0762C107.431 10.6208 107.048 9.48169 106.28 8.65903C105.513 7.83638 104.445 7.42505 103.077 7.42505C102.088 7.42505 101.254 7.64653 100.573 8.0895C99.893 8.52456 99.3946 9.07827 99.0782 9.75064H99.0426V7.63862H97.4764V19.9785Z" fill="white"/>
<path d="M108.677 24.1432C109.903 24.1432 110.801 23.8663 111.37 23.3126C111.948 22.7589 112.236 21.8927 112.236 20.7141V7.63862H110.67V20.7378C110.67 21.4814 110.512 21.9995 110.195 22.2922C109.887 22.5928 109.365 22.7431 108.629 22.7431C108.574 22.7431 108.522 22.7431 108.475 22.7431C108.42 22.7431 108.364 22.7431 108.309 22.7431V24.1313C108.372 24.1392 108.435 24.1432 108.499 24.1432C108.562 24.1432 108.621 24.1432 108.677 24.1432ZM111.453 5.40796C111.746 5.40796 111.991 5.30908 112.189 5.11133C112.387 4.90566 112.485 4.65649 112.485 4.36382C112.485 4.07905 112.387 3.83779 112.189 3.64004C111.991 3.43438 111.746 3.33154 111.453 3.33154C111.168 3.33154 110.923 3.43438 110.718 3.64004C110.512 3.83779 110.409 4.07905 110.409 4.36382C110.409 4.65649 110.512 4.90566 110.718 5.11133C110.923 5.30908 111.168 5.40796 111.453 5.40796Z" fill="white"/>
<path d="M119.213 20.2039C119.822 20.2039 120.399 20.1011 120.945 19.8954C121.491 19.6818 121.973 19.3892 122.392 19.0174C122.812 18.6456 123.132 18.2105 123.354 17.7122H123.389V19.9785H124.955V11.5304C124.955 10.6919 124.766 9.96421 124.386 9.34722C124.014 8.73023 123.484 8.25562 122.796 7.92339C122.116 7.58325 121.305 7.41318 120.364 7.41318C119.438 7.41318 118.631 7.57139 117.943 7.88779C117.255 8.19629 116.709 8.62344 116.306 9.16924C115.902 9.71504 115.661 10.3439 115.582 11.0558L115.57 11.1982H117.077L117.101 11.0795C117.235 10.3755 117.583 9.82183 118.145 9.41841C118.714 9.01499 119.446 8.81328 120.34 8.81328C121.305 8.81328 122.052 9.06641 122.582 9.57266C123.12 10.0789 123.389 10.779 123.389 11.6728V15.3392C123.389 15.9957 123.215 16.589 122.867 17.1189C122.527 17.6489 122.064 18.0682 121.479 18.3767C120.901 18.6772 120.249 18.8275 119.521 18.8275C118.691 18.8275 118.014 18.6219 117.492 18.2105C116.97 17.7913 116.709 17.2416 116.709 16.5613V16.5375C116.709 15.8573 116.97 15.3194 117.492 14.9239C118.022 14.5205 118.77 14.2832 119.735 14.212L124.172 13.9153V12.6932L119.545 12.9898C118.129 13.0769 117.037 13.4289 116.27 14.0459C115.503 14.6549 115.119 15.4855 115.119 16.5375V16.5613C115.119 17.2811 115.289 17.9179 115.629 18.4716C115.977 19.0174 116.46 19.4445 117.077 19.753C117.694 20.0536 118.406 20.2039 119.213 20.2039Z" fill="white"/>
<defs>
<clipPath id="clip0_17_625">
<rect width="15.675" height="20.625" fill="white" transform="translate(8.69464 3.1875)"/>
</clipPath>
</defs>
</svg>
